<mxfile host="65bd71144e">
    <diagram id="7k03WHOiUrd5j1NgHS5h" name="Página-1">
        <mxGraphModel dx="686" dy="470" grid="1" gridSize="10" guides="1" tooltips="1" connect="1" arrows="1" fold="1" page="1" pageScale="1" pageWidth="827" pageHeight="1169" math="0" shadow="0">
            <root>
                <mxCell id="0"/>
                <mxCell id="1" parent="0"/>
                <mxCell id="2" value="&lt;div style=&quot;color: rgb(212 , 212 , 212) ; font-family: &amp;#34;consolas&amp;#34; , &amp;#34;courier new&amp;#34; , monospace ; font-weight: normal ; line-height: 19px&quot;&gt;&lt;div&gt;&lt;span style=&quot;color: rgb(86 , 156 , 214) ; font-weight: bold&quot;&gt;&lt;font style=&quot;font-size: 11px&quot;&gt;&amp;nbsp;Ejercicios: En 1.980 la ciudad A tenia 3.5 millones de habitantes y una rata de crecimiento del 7% anual; y la ciudad b tenia 5 millones y una rata de crecimiento del 5% anual si el crecimiento poblacional se mantiene constante en las dos ciudades hacer el diagrama de flujo y programa en python que calcule e imprima en que año la poblacion de la ciudad A es mayor que la de laciudad B &lt;/font&gt;&lt;/span&gt;&lt;/div&gt;&lt;br&gt;&lt;/div&gt;" style="text;whiteSpace=wrap;html=1;fillColor=none;" parent="1" vertex="1">
                    <mxGeometry x="170" y="20" width="550" height="150" as="geometry"/>
                </mxCell>
                <mxCell id="5" value="" style="edgeStyle=none;html=1;" parent="1" source="3" target="4" edge="1">
                    <mxGeometry relative="1" as="geometry"/>
                </mxCell>
                <mxCell id="3" value="INICIO" style="ellipse;whiteSpace=wrap;html=1;fillColor=#60a917;fontColor=#ffffff;strokeColor=#CF53CF;" parent="1" vertex="1">
                    <mxGeometry x="440" y="150" width="120" height="70" as="geometry"/>
                </mxCell>
                <mxCell id="7" value="" style="edgeStyle=none;html=1;" parent="1" source="4" target="6" edge="1">
                    <mxGeometry relative="1" as="geometry"/>
                </mxCell>
                <mxCell id="4" value="Poblacion mayor&amp;nbsp;" style="shape=parallelogram;perimeter=parallelogramPerimeter;whiteSpace=wrap;html=1;fixedSize=1;strokeColor=#B09500;fillColor=#e3c800;fontColor=#000000;" parent="1" vertex="1">
                    <mxGeometry x="425" y="290" width="150" height="60" as="geometry"/>
                </mxCell>
                <mxCell id="13" value="" style="edgeStyle=none;html=1;fontSize=11;" parent="1" source="6" target="12" edge="1">
                    <mxGeometry relative="1" as="geometry"/>
                </mxCell>
                <mxCell id="6" value="Año = 1980&lt;br&gt;poblacio_a = 3.5&amp;nbsp;&lt;br&gt;tasa_a = 7%&lt;br&gt;poblacion_b = 5&lt;br&gt;tasa_b = 5 %" style="whiteSpace=wrap;html=1;fillColor=#fa6800;strokeColor=#C73500;fontColor=#000000;" parent="1" vertex="1">
                    <mxGeometry x="440" y="370" width="120" height="80" as="geometry"/>
                </mxCell>
                <mxCell id="8" value="&lt;font style=&quot;font-size: 11px&quot;&gt;1.980 -3.5 milloes&lt;br&gt;&amp;nbsp;crecimiento 7% anual&amp;nbsp;&lt;/font&gt;" style="text;html=1;align=center;verticalAlign=middle;resizable=0;points=[];autosize=1;strokeColor=none;fillColor=none;" parent="1" vertex="1">
                    <mxGeometry x="170" y="250" width="130" height="30" as="geometry"/>
                </mxCell>
                <mxCell id="9" value="A" style="text;html=1;align=center;verticalAlign=middle;resizable=0;points=[];autosize=1;strokeColor=none;fillColor=none;fontSize=11;" parent="1" vertex="1">
                    <mxGeometry x="170" y="220" width="20" height="20" as="geometry"/>
                </mxCell>
                <mxCell id="10" value="b" style="text;html=1;align=center;verticalAlign=middle;resizable=0;points=[];autosize=1;strokeColor=none;fillColor=none;fontSize=11;" parent="1" vertex="1">
                    <mxGeometry x="170" y="290" width="20" height="20" as="geometry"/>
                </mxCell>
                <mxCell id="11" value="5 millones&amp;nbsp;&lt;br&gt;&amp;nbsp; &amp;nbsp; &amp;nbsp; &amp;nbsp; &amp;nbsp; &amp;nbsp; &amp;nbsp; &amp;nbsp; &amp;nbsp; &amp;nbsp; &amp;nbsp; &amp;nbsp;crecimiento 5 % anual" style="text;html=1;align=center;verticalAlign=middle;resizable=0;points=[];autosize=1;strokeColor=none;fillColor=none;fontSize=11;" parent="1" vertex="1">
                    <mxGeometry x="105" y="305" width="190" height="30" as="geometry"/>
                </mxCell>
                <mxCell id="15" value="" style="edgeStyle=none;html=1;fontSize=11;" parent="1" source="12" target="14" edge="1">
                    <mxGeometry relative="1" as="geometry"/>
                </mxCell>
                <mxCell id="17" value="" style="edgeStyle=none;html=1;fontSize=11;" parent="1" source="12" target="16" edge="1">
                    <mxGeometry relative="1" as="geometry"/>
                </mxCell>
                <mxCell id="12" value="poblacion_a&amp;lt;poblacion_b&amp;nbsp;" style="rhombus;whiteSpace=wrap;html=1;fillColor=#a0522d;strokeColor=#6D1F00;fontColor=#ffffff;" parent="1" vertex="1">
                    <mxGeometry x="420" y="475" width="160" height="110" as="geometry"/>
                </mxCell>
                <mxCell id="14" value="poblacion_a=poblacion_a +(poblacion_a*tasa_a)&lt;br&gt;&lt;br&gt;poblacion_b=poblacion_b +(poblacion_b*tasa_b)&lt;br&gt;&lt;br&gt;año = anño +1&lt;br&gt;" style="whiteSpace=wrap;html=1;fillColor=#e51400;strokeColor=#B20000;fontColor=#ffffff;" parent="1" vertex="1">
                    <mxGeometry x="390" y="610" width="220" height="110" as="geometry"/>
                </mxCell>
                <mxCell id="19" value="" style="edgeStyle=none;html=1;fontSize=11;" parent="1" source="16" target="18" edge="1">
                    <mxGeometry relative="1" as="geometry"/>
                </mxCell>
                <mxCell id="16" value="año" style="shape=document;whiteSpace=wrap;html=1;boundedLbl=1;fillColor=#647687;strokeColor=#314354;fontColor=#ffffff;" parent="1" vertex="1">
                    <mxGeometry x="630" y="490" width="120" height="80" as="geometry"/>
                </mxCell>
                <mxCell id="18" value="Fin" style="ellipse;whiteSpace=wrap;html=1;fillColor=#f0a30a;strokeColor=#BD7000;fontColor=#000000;" parent="1" vertex="1">
                    <mxGeometry x="630" y="585" width="120" height="60" as="geometry"/>
                </mxCell>
                <mxCell id="20" value="" style="endArrow=none;html=1;fontSize=11;exitX=0.5;exitY=1;exitDx=0;exitDy=0;" parent="1" source="14" edge="1">
                    <mxGeometry width="50" height="50" relative="1" as="geometry">
                        <mxPoint x="430" y="590" as="sourcePoint"/>
                        <mxPoint x="500" y="460" as="targetPoint"/>
                        <Array as="points">
                            <mxPoint x="500" y="780"/>
                            <mxPoint x="500" y="790"/>
                            <mxPoint x="474" y="790"/>
                            <mxPoint x="380" y="790"/>
                            <mxPoint x="380" y="750"/>
                            <mxPoint x="380" y="460"/>
                        </Array>
                    </mxGeometry>
                </mxCell>
                <mxCell id="21" value="v" style="text;html=1;align=center;verticalAlign=middle;resizable=0;points=[];autosize=1;strokeColor=none;fillColor=none;fontSize=11;" parent="1" vertex="1">
                    <mxGeometry x="520" y="590" width="20" height="20" as="geometry"/>
                </mxCell>
                <mxCell id="22" value="F" style="text;html=1;align=center;verticalAlign=middle;resizable=0;points=[];autosize=1;strokeColor=none;fillColor=none;fontSize=11;" parent="1" vertex="1">
                    <mxGeometry x="560" y="470" width="20" height="20" as="geometry"/>
                </mxCell>
            </root>
        </mxGraphModel>
    </diagram>
</mxfile>